<svg xmlns="http://www.w3.org/2000/svg" viewBox="0 0 24 24" fill="white" width="24" height="24">
  <path d="M9.5 4C5.36 4 2 6.69 2 10c0 1.89 1.08 3.56 2.78 4.66L4 17l2.5-1.18C7.09 16.04 7.59 16.2 8.1 16.3c.72-1.03 1.75-1.8 2.9-2.3-.33-.47-.53-1.03-.53-1.63C10.47 10.09 12.09 8.5 14.08 8.5c1.72 0 3.17 1.19 3.5 2.78.6-.22 1.23-.38 1.92-.38C15.36 10.9 12 8.21 12 5c0-.34.03-.67.08-1H14.5V4H9.5zM7.5 7.5c-.55 0-1 .45-1 1s.45 1 1 1 1-.45 1-1-.45-1-1-1zm5 0c-.55 0-1 .45-1 1s.45 1 1 1 1-.45 1-1-.45-1-1-1z"/>
  <path d="M22 14.5c0-2.76-2.69-5-6-5s-6 2.24-6 5c0 2.76 2.69 5 6 5 .71 0 1.39-.1 2.03-.29L20.5 20.5l-.63-2.12C21.11 17.27 22 15.97 22 14.5zm-8.5-.5c-.55 0-1-.45-1-1s.45-1 1-1 1 .45 1 1-.45 1-1 1zm5 0c-.55 0-1-.45-1-1s.45-1 1-1 1 .45 1 1-.45 1-1 1z"/>
</svg>
